<svg viewBox="0 0 24 24" fill="current" xmlns="http://www.w3.org/2000/svg">
<path d="M4.93798 6.75733C3.91798 6.75733 2.88246 7.15507 2.70996 7.37257C2.66496 7.46257 2.5606 8.18995 2.8081 8.18995C2.8906 8.18995 2.92845 8.20431 3.16845 8.09181C4.06845 7.73931 4.63869 7.74757 4.72119 7.74757C5.73369 7.65007 6.31851 8.34042 6.22851 9.23292V9.75733C5.37351 9.55483 4.88502 9.54786 4.64502 9.54786C3.40002 9.47286 2.25 10.1293 2.25 11.5723C2.25 13.1548 3.66246 13.4932 4.20996 13.4707C5.02746 13.4782 5.80769 13.1107 6.32519 12.4732C6.73769 13.3957 7.00031 13.3345 7.00781 13.3345C7.08281 13.3345 7.14263 13.3046 7.20263 13.2671L7.63037 12.9668C7.70537 12.9218 7.76496 12.8473 7.77246 12.7573C7.76496 12.5398 7.37478 12.2023 7.40478 11.4448V9.10548C7.44978 8.46048 7.24066 7.82931 6.80566 7.34181C6.28816 6.90681 5.60548 6.69733 4.93798 6.75733ZM19.4678 6.75733C17.9678 6.75733 17.1059 7.69448 17.1284 8.64698C17.1284 9.95198 18.4477 10.3657 18.5977 10.4107C19.8652 10.8082 20.0381 10.8226 20.3906 11.1226C20.6906 11.4301 20.6529 12.0305 20.2104 12.293C20.0829 12.368 19.5349 12.6974 18.2974 12.4424C17.8849 12.3599 17.6681 12.2626 17.3306 12.1201C17.2406 12.0901 17.0303 12.0375 17.0303 12.315V12.6826C17.0303 12.8551 17.135 13.0119 17.2925 13.0869C18.08 13.4844 19.025 13.5 19.2275 13.5C19.2575 13.5 20.9821 13.5009 21.5596 12.3369C21.6788 12.0969 21.9877 11.2207 21.4102 10.4707C20.9302 9.90821 20.5176 9.84815 19.2876 9.47315C19.1826 9.44315 18.2752 9.20978 18.2827 8.57228C18.2377 7.75478 19.3481 7.7106 19.5806 7.7256C20.5181 7.7106 20.9823 8.06198 21.2373 8.08448C21.3498 8.08448 21.4028 8.01769 21.4028 7.86769V7.52198C21.4103 7.43948 21.3804 7.35804 21.3354 7.29054C21.0354 6.90054 19.8878 6.75733 19.4678 6.75733ZM8.083 6.94483C8.0005 6.95983 7.94056 7.04251 7.95556 7.12501C7.97056 7.22251 7.98544 7.32048 8.02294 7.41798L9.70312 12.9595C9.74062 13.1395 9.85957 13.3352 10.1221 13.3052H10.7373C11.1123 13.3427 11.1649 12.9823 11.1724 12.9448L12.2754 8.32472L13.3931 12.9522C13.4006 12.9897 13.4533 13.35 13.8208 13.3125H14.4434C14.7134 13.3425 14.8409 13.1468 14.8784 12.9668C16.7684 6.88431 16.6403 7.2978 16.6553 7.2378C16.6853 6.9228 16.5051 6.94466 16.4751 6.95216H15.8071C15.4696 6.91466 15.4032 7.22286 15.3882 7.29786L14.1431 12.1055L13.0181 7.29786C12.9656 6.93036 12.6653 6.94466 12.5903 6.95216H12.0132C11.6832 6.92216 11.6006 7.18536 11.5781 7.29786L10.4604 12.0381L9.26074 7.29786C9.23074 7.14786 9.13283 6.91483 8.84033 6.94483H8.083ZM4.89257 10.418C5.43257 10.4255 5.89869 10.507 6.22119 10.582C6.22119 10.957 6.23484 11.1674 6.15234 11.5049C6.04734 11.8649 5.58328 12.5182 4.48828 12.5332C3.85828 12.5632 3.44589 12.0674 3.48339 11.5049C3.44589 10.6049 4.37507 10.3805 4.89257 10.418ZM21.7808 15.0015C21.0807 15.0112 20.2544 15.168 19.6274 15.6079C19.4339 15.7422 19.4678 15.9286 19.6831 15.9038C20.3881 15.8191 21.9573 15.6288 22.2378 15.9873C22.519 16.3458 21.9268 17.8248 21.665 18.4863C21.584 18.6836 21.7553 18.7652 21.936 18.6152C23.109 17.6327 23.4138 15.5731 23.1738 15.2769C23.0534 15.1287 22.4808 14.9917 21.7808 15.0015ZM0.912594 15.7515C0.749047 15.774 0.678605 15.9813 0.849605 16.1455C3.78736 18.901 7.66924 20.25 11.9795 20.25C15.0537 20.25 18.6227 19.2469 21.0864 17.3569C21.4937 17.0427 21.1467 16.5718 20.729 16.7578C17.9667 17.9766 14.9666 18.564 12.2358 18.564C8.18884 18.564 4.27106 17.7191 1.10156 15.7998C1.03218 15.7578 0.967109 15.744 0.912594 15.7515Z" fill="current"/>
</svg>
