<svg  viewBox="0 0 24 24" fill="current" xmlns="http://www.w3.org/2000/svg">
<path d="M8.55322 2.51965C7.91924 2.4776 7.29616 2.59104 6.75 2.90636C6.02178 3.3268 5.53684 4.04446 5.27637 4.87072C5.01589 5.69698 4.95569 6.64921 5.05078 7.68908C5.06041 7.79441 5.07894 7.9042 5.0918 8.01134C4.99239 8.05386 4.88771 8.09292 4.7915 8.13732C3.84341 8.5749 3.0492 9.10261 2.46387 9.74132C1.87854 10.38 1.5 11.1592 1.5 12.0001C1.5 12.841 1.87854 13.6202 2.46387 14.2589C3.0492 14.8976 3.84341 15.4253 4.7915 15.8629C4.88771 15.9073 4.99239 15.9464 5.0918 15.9889C5.07894 16.096 5.06041 16.2058 5.05078 16.3111C4.95569 17.351 5.01589 18.3032 5.27637 19.1295C5.53684 19.9558 6.02178 20.6734 6.75 21.0939C7.47822 21.5143 8.3417 21.5758 9.1875 21.3883C10.0333 21.2007 10.8877 20.7762 11.7407 20.1739C11.8271 20.113 11.9137 20.0423 12 19.9777C12.0863 20.0423 12.1729 20.113 12.2593 20.1739C13.1123 20.7762 13.9667 21.2007 14.8125 21.3883C15.6583 21.5758 16.5218 21.5143 17.25 21.0939C17.9782 20.6734 18.4632 19.9558 18.7236 19.1295C18.9841 18.3032 19.0443 17.351 18.9492 16.3111C18.9396 16.2058 18.9211 16.096 18.9082 15.9889C19.0076 15.9464 19.1123 15.9073 19.2085 15.8629C20.1566 15.4253 20.9508 14.8976 21.5361 14.2589C22.1215 13.6202 22.5 12.841 22.5 12.0001C22.5 11.1592 22.1215 10.38 21.5361 9.74132C20.9508 9.10261 20.1566 8.5749 19.2085 8.13732C19.1123 8.09292 19.0076 8.05386 18.9082 8.01134C18.9211 7.9042 18.9396 7.79441 18.9492 7.68908C19.0443 6.64921 18.9841 5.69698 18.7236 4.87072C18.4632 4.04446 17.9782 3.3268 17.25 2.90636C16.5218 2.48593 15.6583 2.42438 14.8125 2.61193C13.9667 2.79948 13.1123 3.224 12.2593 3.82629C12.1729 3.88726 12.0863 3.9579 12 4.02257C11.9137 3.9579 11.8271 3.88726 11.7407 3.82629C10.8877 3.224 10.0333 2.79948 9.1875 2.61193C8.97605 2.56504 8.76455 2.53366 8.55322 2.51965ZM8.45508 4.01379C8.58289 4.02341 8.71875 4.04462 8.86377 4.07677C9.43053 4.20245 10.1093 4.52057 10.8252 5.01867C10.2289 5.5843 9.64215 6.22778 9.08203 6.94787C8.17938 7.07289 7.32916 7.258 6.54199 7.49132C6.46869 6.62263 6.53157 5.87539 6.70605 5.32189C6.88469 4.75523 7.15206 4.40656 7.5 4.20568C7.76095 4.05502 8.07165 3.98492 8.45508 4.01379ZM15.5449 4.01379C15.9283 3.98492 16.239 4.05502 16.5 4.20568C16.8479 4.40656 17.1153 4.75523 17.2939 5.32189C17.4684 5.87539 17.5313 6.62263 17.458 7.49132C16.6708 7.258 15.8206 7.07289 14.918 6.94787C14.3579 6.22778 13.7711 5.5843 13.1748 5.01867C13.8907 4.52057 14.5695 4.20245 15.1362 4.07677C15.2812 4.04462 15.4171 4.02341 15.5449 4.01379ZM12 5.96935C12.2636 6.21308 12.5268 6.48412 12.7896 6.76769C12.528 6.75844 12.2666 6.75011 12 6.75011C11.7334 6.75011 11.472 6.75844 11.2104 6.76769C11.4732 6.48412 11.7364 6.21308 12 5.96935ZM12 8.25011C12.7234 8.25011 13.4245 8.29265 14.0991 8.36437C14.4985 8.91271 14.8859 9.49863 15.2476 10.1251C15.6093 10.7516 15.923 11.38 16.1982 12.0001C15.923 12.6202 15.6093 13.2486 15.2476 13.8751C14.8859 14.5016 14.4985 15.0875 14.0991 15.6359C13.4245 15.7076 12.7234 15.7501 12 15.7501C11.2766 15.7501 10.5755 15.7076 9.90088 15.6359C9.50148 15.0875 9.11414 14.5016 8.75244 13.8751C8.39072 13.2486 8.07695 12.6202 7.80176 12.0001C8.07695 11.38 8.39072 10.7516 8.75244 10.1251C9.11414 9.49863 9.50148 8.91271 9.90088 8.36437C10.5755 8.29265 11.2766 8.25011 12 8.25011ZM7.86328 8.69982C7.72451 8.92169 7.58643 9.14423 7.45312 9.37511C7.31982 9.606 7.19649 9.83687 7.07373 10.068C6.95972 9.69916 6.85702 9.33515 6.77783 8.98547C7.12059 8.87907 7.48646 8.78559 7.86328 8.69982ZM16.1367 8.69982C16.5135 8.78559 16.8794 8.87907 17.2222 8.98547C17.143 9.33515 17.0403 9.69916 16.9263 10.068C16.8035 9.83687 16.6802 9.606 16.5469 9.37511C16.4136 9.14423 16.2755 8.92169 16.1367 8.69982ZM5.36572 9.52746C5.55739 10.3265 5.82208 11.1552 6.16553 12.0001C5.82208 12.8451 5.55739 13.6737 5.36572 14.4728C4.57711 14.102 3.9618 13.673 3.56982 13.2452C3.1684 12.8072 3 12.4019 3 12.0001C3 11.5983 3.1684 11.193 3.56982 10.755C3.9618 10.3273 4.57711 9.89824 5.36572 9.52746ZM18.6343 9.52746C19.4229 9.89824 20.0382 10.3273 20.4302 10.755C20.8316 11.193 21 11.5983 21 12.0001C21 12.4019 20.8316 12.8072 20.4302 13.2452C20.0382 13.673 19.4229 14.102 18.6343 14.4728C18.4426 13.6737 18.1779 12.8451 17.8345 12.0001C18.1779 11.1552 18.4426 10.3265 18.6343 9.52746ZM12 9.75011C10.7662 9.75011 9.75 10.7664 9.75 12.0001C9.75 13.2339 10.7662 14.2501 12 14.2501C13.2338 14.2501 14.25 13.2339 14.25 12.0001C14.25 10.7664 13.2338 9.75011 12 9.75011ZM12 11.2501C12.4231 11.2501 12.75 11.577 12.75 12.0001C12.75 12.4232 12.4231 12.7501 12 12.7501C11.5769 12.7501 11.25 12.4232 11.25 12.0001C11.25 11.577 11.5769 11.2501 12 11.2501ZM7.07373 13.9322C7.19649 14.1634 7.31982 14.3942 7.45312 14.6251C7.58643 14.856 7.72451 15.0785 7.86328 15.3004C7.48646 15.2146 7.12059 15.1212 6.77783 15.0148C6.85702 14.6651 6.95972 14.3011 7.07373 13.9322ZM16.9263 13.9322C17.0403 14.3011 17.143 14.6651 17.2222 15.0148C16.8794 15.1212 16.5135 15.2146 16.1367 15.3004C16.2755 15.0785 16.4136 14.856 16.5469 14.6251C16.6802 14.3942 16.8035 14.1634 16.9263 13.9322ZM6.54199 16.5089C7.32916 16.7422 8.17938 16.9273 9.08203 17.0524C9.64215 17.7724 10.2289 18.4159 10.8252 18.9816C10.1093 19.4797 9.43053 19.7978 8.86377 19.9235C8.28371 20.0521 7.84794 19.9954 7.5 19.7945C7.15206 19.5937 6.88469 19.245 6.70605 18.6783C6.53157 18.1248 6.46869 17.3776 6.54199 16.5089ZM17.458 16.5089C17.5313 17.3776 17.4684 18.1248 17.2939 18.6783C17.1153 19.245 16.8479 19.5937 16.5 19.7945C16.1521 19.9954 15.7163 20.0521 15.1362 19.9235C14.5695 19.7978 13.8907 19.4797 13.1748 18.9816C13.7711 18.4159 14.3579 17.7724 14.918 17.0524C15.8206 16.9273 16.6708 16.7422 17.458 16.5089ZM11.2104 17.2325C11.472 17.2418 11.7334 17.2501 12 17.2501C12.2666 17.2501 12.528 17.2418 12.7896 17.2325C12.5268 17.5161 12.2636 17.7871 12 18.0309C11.7364 17.7871 11.4732 17.5161 11.2104 17.2325Z" fill="current"/>
</svg>
